<?xml version="1.0" encoding="utf-8"?>
<!-- Generator: Adobe Illustrator 16.0.0, SVG Export Plug-In . SVG Version: 6.00 Build 0)  -->
<!DOCTYPE svg PUBLIC "-//W3C//DTD SVG 1.1//EN" "http://www.w3.org/Graphics/SVG/1.1/DTD/svg11.dtd">
<svg version="1.1" id="Layer_1" xmlns="http://www.w3.org/2000/svg" xmlns:xlink="http://www.w3.org/1999/xlink" x="0px" y="0px"
	 width="93.242px" height="114.5px" viewBox="0 0 93.242 114.5" enable-background="new 0 0 93.242 114.5" xml:space="preserve">
<path fill="#FFFFFF" d="M44.515,49.593l-0.564,0.108l-20.205,3.895c0,0-11.442,3.656-13.012,7.507
	c-1.568,3.851-2.018,6.589-1.875,9.156"/>
<path fill="#FFFFFF" d="M17.825,74.081c0.666-0.166,15.166-15.5,15.166-15.5l13.834-8.5l3.166,1.334c0,0,5.667,1.166,8.667,1
	c3-0.167,7.5-1,10.667-2.5c3.166-1.5,4.5-2,4.5-2s1.5-1.5,0.166-2.334c-1.333-0.833-15-19.666-15-19.666l9.184-6.929
	c0,0,18.15,20.095,18.983,21.262s6.833,8,5,10.833c-1.833,2.834-11.833,11.5-12.833,12s-8.334,5.667-9.667,10.167
	s-1.5,14.833-1.5,16.333s-0.167,34.167-0.167,34.167"/>
<path fill="#FEF5E6" d="M31.033,51.186l1.187-1l0.313-5.688l-0.875-5.5c-1.25-0.75-2.938-5.313-2.938-5.313
	c-0.75-0.25-2.123-1.375-2.748-2.938s0.25-3.313,1.062-3.813s2.438,0.438,2.438,0.438v-4.188c0,0,0.625-2.938,0.625-3.125
	s7.498-3.938,7.498-3.938l11.688,0.313l6.687,6l0.188,4.188c0,0,1.937,1.188,2.562,2.438s0,3.25-0.625,4.5s-2.5,0.813-2.5,0.813
	l-0.562,2.5c-1.069,2.137-2.792,2.959-2.792,2.959l0.417,11.291l1.25,0.688l-3,2l-5.062,1.375c0,0-4.813,0.125-5,0.125
	c-0.188,0-6.813-1.563-6.813-1.563L31.033,51.186"/>
<path fill="none" stroke="#063190" stroke-width="1.3" stroke-linecap="round" stroke-linejoin="round" stroke-miterlimit="10" d="
	M56.244,27.867c0,0,1.526-1.406,2.227,0.795s0.5,6.402-2.701,5.503l-0.509,1.767l-0.827,1.653c-0.708,1.062-2.401,3.437-7.081,4.722
	c-5.861,1.608-10.41-0.037-10.41-0.037c-6.852-2.125-7.916-8.858-7.916-8.858s-2.682,0.397-3.272-2.554
	c-0.59-2.95,0.236-4.484,2.478-4.367"/>
<path fill="#063190" d="M49.76,23.152c0,0.588-0.477,1.063-1.063,1.063s-1.063-0.475-1.063-1.063c0-0.587,0.476-1.063,1.063-1.063
	S49.76,22.565,49.76,23.152"/>
<path fill="#063190" d="M37.976,23.152c0,0.588-0.477,1.063-1.063,1.063c-0.588,0-1.063-0.475-1.063-1.063
	c0-0.587,0.476-1.063,1.063-1.063C37.499,22.09,37.976,22.565,37.976,23.152"/>
<path fill="#063190" d="M44.584,32.12c-0.31-0.019-0.418,0.123-0.681,0.278c-0.344,0.207-0.74,0.336-1.141,0.373
	c-0.822,0.078-1.404-0.279-2.072-0.687c-0.262-0.16-0.593,0.162-0.426,0.427c0.508,0.805,1.588,1.121,2.498,1.08
	c0.661-0.029,2.096-0.367,2.066-1.227C44.823,32.227,44.721,32.128,44.584,32.12"/>
<path fill="#063190" d="M43.509,28.479c-0.374-0.154-0.711-0.114-1.109-0.146c-0.427-0.037-0.811-0.154-1.223-0.25
	c-0.237-0.056-0.465,0.258-0.255,0.438c0.633,0.543,1.922,0.999,2.649,0.445C43.764,28.819,43.729,28.569,43.509,28.479"/>
<path fill="#063190" d="M29.111,29.821c-0.192-0.282-0.454-0.248-0.757-0.308c-0.266-0.053-0.492-0.192-0.752-0.263
	c-0.256-0.071-0.497,0.224-0.35,0.457c0.176,0.285,0.484,0.453,0.788,0.58c0.306,0.128,0.761,0.278,1.013-0.021
	C29.154,30.148,29.208,29.963,29.111,29.821"/>
<path fill="#FFFFFF" d="M8.858,70.259l6.3-6.679l15.5-8l7.833-3l7.334,6.834l-6.834,21.667l-12.5,19.167l-7.5,3
	c0,0-0.666,7-8.333,1.167l-3.5-23L8.858,70.259z"/>
<path fill="#063190" d="M55.506,30.766c0.192-0.282,0.454-0.249,0.757-0.309c0.266-0.052,0.492-0.191,0.751-0.263
	c0.256-0.071,0.498,0.224,0.352,0.458c-0.178,0.285-0.485,0.453-0.789,0.58c-0.306,0.128-0.761,0.279-1.013-0.02
	C55.463,31.094,55.409,30.908,55.506,30.766"/>
<path fill="none" stroke="#063190" stroke-width="1.5" stroke-linecap="round" stroke-linejoin="round" stroke-miterlimit="10" d="
	M32.283,40.123c0,0,0.19,10.596-0.028,10.596c0,0-10.104,3.096-12.357,4.128c-2.252,1.032-7.475,3.003-9.664,6.38
	c0,0-3.742,21.854-3.075,26.354s2.167,19.667,7.667,19.5c5.5-0.166,5.5-9,5.5-9"/>
<line fill="none" stroke="#063190" stroke-width="1.5" stroke-linecap="round" stroke-linejoin="round" stroke-miterlimit="10" x1="52.825" y1="39.998" x2="52.991" y2="51.915"/>
<line fill="none" stroke="#063190" stroke-width="3" stroke-linejoin="round" stroke-miterlimit="10" x1="20.158" y1="55.248" x2="25.033" y2="76.123"/>
<line fill="none" stroke="#063190" stroke-width="3" stroke-linejoin="round" stroke-miterlimit="10" x1="62.491" y1="52.415" x2="59.158" y2="77.415"/>
<polyline fill="#063190" points="64.908,124.415 63.783,76.248 20.408,76.248 19.908,124.415 "/>
<polyline fill="none" stroke="#063190" stroke-width="1.5" stroke-miterlimit="10" points="64.908,124.415 63.783,76.248 
	20.408,76.248 19.908,124.415 "/>
<path fill="none" stroke="#063190" stroke-width="1.3" stroke-linecap="round" stroke-linejoin="round" stroke-miterlimit="10" d="
	M31.158,51.748c0,0,12.25,8.25,23,0"/>
<path fill="#063190" d="M27.996,26.058l0.551,1.889c0.798,0.519,1.856-0.028,1.894-0.979l0.31-7.912l-2.36-1.811L27.996,26.058z"/>
<path fill="#063190" d="M57.5,26.475l-0.551,1.889c-0.797,0.52-1.856-0.029-1.894-0.979l-0.31-7.913l2.36-1.81L57.5,26.475z"/>
<path fill="#063190" d="M39.799,18.504c0,0,9.294,3.486,13.774,3.396l-3.859-3.869l-6.926-1.101L39.799,18.504z"/>
<path fill="#D3DFF4" d="M27.056,17.561c0,0-0.6-7.975,3.459-12.275c3.105-3.294,7.295-4.072,11.961-4.312
	c0.393-0.021,0.779,0.001,1.167,0.056c2.382,0.338,8.666,0.118,11.849,5.053c3.147,4.877,2.641,11.479,2.641,11.479
	s-5.256-4.219-15.66-3.977C35.493,13.748,32.573,14.721,27.056,17.561"/>
<path fill="none" stroke="#063190" stroke-width="1.3" stroke-linecap="round" stroke-linejoin="round" stroke-miterlimit="10" d="
	M27.056,17.561c0,0-0.6-7.975,3.459-12.275c3.105-3.294,7.295-4.072,11.961-4.312c0.393-0.021,0.779,0.001,1.167,0.056
	c2.382,0.338,8.666,0.118,11.849,5.053c3.147,4.877,2.641,11.479,2.641,11.479s-5.256-4.219-15.66-3.977
	C35.493,13.748,32.573,14.721,27.056,17.561z"/>
<path fill="#FFFFFF" d="M58.132,17.317c0,0,0.392,1.012-0.096,3.202c-0.486,2.191-2.597,2.109-4.463,1.38s-3.003-2.271-7.951-3.003
	c-4.95-0.729-7.547,0.244-10.711,1.947c-3.164,1.705-6.572,2.354-7.383,0c-0.813-2.352-0.473-3.283-0.473-3.283
	s3.326-1.947,5.762-2.598c2.434-0.648,7.059-1.541,14.117-1.216C53.994,14.071,58.132,17.317,58.132,17.317"/>
<path fill="none" stroke="#063190" stroke-width="1.3" stroke-linecap="round" stroke-linejoin="round" stroke-miterlimit="10" d="
	M58.132,17.317c0,0,0.392,1.012-0.096,3.202c-0.486,2.191-2.597,2.109-4.463,1.38s-3.003-2.271-7.951-3.003
	c-4.95-0.729-7.547,0.244-10.711,1.947c-3.164,1.705-6.572,2.354-7.383,0c-0.813-2.352-0.473-3.283-0.473-3.283
	s3.326-1.947,5.762-2.598c2.434-0.648,7.059-1.541,14.117-1.216C53.994,14.071,58.132,17.317,58.132,17.317z"/>
<line fill="#FFFFFF" x1="42.946" y1="1.193" x2="42.634" y2="13.098"/>
<line fill="none" stroke="#063190" stroke-width="1.3" stroke-linecap="round" stroke-linejoin="round" stroke-miterlimit="10" x1="42.946" y1="1.193" x2="42.634" y2="13.098"/>
<path fill="none" stroke="#063190" stroke-width="1.3" stroke-linecap="round" stroke-linejoin="round" stroke-miterlimit="10" d="
	M33.325,56.581c0,0,4.25,2.417,9.416,2.25"/>
<path fill="#FFFFFF" d="M55.893,89.694c-0.098,0.26-0.236,0.498-0.414,0.716c-0.18,0.221-0.392,0.418-0.641,0.592
	c-0.247,0.17-0.506,0.299-0.78,0.39c-0.274,0.09-0.545,0.134-0.813,0.133c-0.271,0-0.51-0.046-0.715-0.138
	c-0.202-0.089-0.362-0.221-0.484-0.396c-0.115-0.166-0.178-0.36-0.187-0.588c-0.011-0.213,0.034-0.453,0.136-0.718
	c0.1-0.263,0.237-0.503,0.412-0.722c0.181-0.227,0.391-0.42,0.634-0.585c0.248-0.171,0.508-0.302,0.783-0.393
	c0.269-0.09,0.543-0.134,0.819-0.134c0.271,0.001,0.51,0.047,0.715,0.138c0.199,0.093,0.358,0.225,0.482,0.396
	c0.113,0.176,0.176,0.372,0.188,0.591C56.035,89.199,55.99,89.44,55.893,89.694 M53.65,90.465c0.213,0,0.414-0.07,0.602-0.212
	c0.183-0.136,0.319-0.323,0.41-0.561c0.09-0.237,0.096-0.427,0.02-0.569c-0.082-0.143-0.229-0.214-0.439-0.216
	c-0.219,0-0.422,0.072-0.608,0.217c-0.189,0.146-0.327,0.335-0.416,0.564c-0.089,0.234-0.093,0.422-0.012,0.562
	C53.283,90.393,53.431,90.464,53.65,90.465"/>
<path fill="#FFFFFF" d="M54.542,86.817c-0.678,0.095-1.358,0.454-1.92,0.871h0.198c-0.003,0.001-0.005,0.003-0.005,0.003
	c0.001-0.001,0.004-0.002,0.006-0.003c0.07-0.045,0.142-0.088,0.214-0.129c0.516-0.291,1.083-0.466,1.626-0.463
	c0.621,0.002,1.076,0.231,1.366,0.604l1.241,0.003c-0.458-0.485-0.984-0.735-1.468-0.838C55.458,86.783,55.031,86.741,54.542,86.817
	"/>
<path fill="#FFFFFF" d="M53.329,92.566c0.678-0.094,1.357-0.453,1.92-0.87l-0.198-0.001c0.001-0.001,0.004-0.003,0.004-0.003
	c-0.002,0.001-0.003,0.002-0.005,0.003c-0.071,0.046-0.142,0.089-0.214,0.13c-0.517,0.291-1.083,0.464-1.626,0.463
	c-0.622-0.002-1.076-0.231-1.366-0.604l-1.242-0.004c0.458,0.485,0.984,0.735,1.469,0.838C52.413,92.602,52.84,92.644,53.329,92.566
	"/>
<path fill="#FFFFFF" d="M33.717,86.794h-1.339c0,0-1.352,1.773-1.641,2.117c0.123-0.401,0.62-2.117,0.62-2.117h-0.991
	c0,0-1.295,1.869-1.545,2.206c0.078-0.39,0.368-2.206,0.368-2.206h-1.284l-0.75,4.559h0.854c0,0,1.198-1.541,1.487-1.903
	c-0.125,0.416-0.56,1.903-0.56,1.903h1.202l3.695-4.559H33.717z"/>
<path fill="#FFFFFF" d="M34.871,91.353l-0.14-3.347h-1.268l-2.813,3.347h1.242l0.479-0.581H33.7l-0.033,0.581H34.871z
	 M33.034,89.974l0.779-0.945l-0.06,0.948C33.663,89.976,33.2,89.975,33.034,89.974"/>
<path fill="#FFFFFF" d="M35.155,91.32c0.303,0.118,0.634,0.177,0.883,0.177c1.047,0.003,1.641-0.259,1.965-1.07
	c0.252-0.632-0.117-0.847-0.599-1.128c-0.28-0.163-0.408-0.254-0.362-0.362c0.049-0.117,0.25-0.146,0.439-0.152
	c0.503-0.021,0.884,0.389,0.884,0.389l0.419-0.918l-0.031-0.026c-0.279-0.264-0.759-0.423-1.271-0.426
	c-0.812-0.002-1.422,0.322-1.684,0.946c-0.185,0.436-0.023,0.961,0.407,1.226c0.001,0,0.131,0.08,0.131,0.08
	c0.2,0.119,0.271,0.217,0.243,0.28c-0.076,0.168-0.302,0.183-0.475,0.168c-0.489-0.043-1.012-0.27-1.012-0.27L35.155,91.32z"/>
<path fill="#FFFFFF" d="M41.387,88.006l-0.535,1.178h-0.888c0.056-0.125,0.529-1.178,0.529-1.178h-1.217l-1.512,3.347h1.212
	l0.552-1.208h0.891l-0.547,1.208h1.224l1.517-3.347H41.387z"/>
<polygon fill="#FFFFFF" points="46.12,87.813 46.563,86.828 43.542,86.828 41.552,91.353 44.64,91.353 45.054,90.403 43.356,90.403 
	43.726,89.567 45.324,89.567 45.754,88.613 44.146,88.613 44.496,87.813 "/>
<path fill="#FFFFFF" d="M51.211,88.006l-0.848,1.85c-0.163,0.367-0.29,0.473-0.568,0.472l-0.589-0.001l-0.447,1.026h1.109
	c0.707,0.002,1.216-0.368,1.6-1.229l0.965-2.117H51.211z"/>
<path fill="#FFFFFF" d="M58.58,88.006c0,0-0.92,0.813-1.04,0.914c-0.032-0.135-0.211-0.914-0.211-0.914h-1.247
	c0,0,0.458,1.814,0.467,1.851l-0.679,1.496h1.188l0.624-1.39c0.021-0.018,2.309-1.957,2.309-1.957H58.58z"/>
<polygon fill="#FFFFFF" points="46.506,88.006 47.625,88.006 47.846,89.756 48.63,88.006 49.869,88.006 48.362,91.353 
	47.212,91.353 46.991,89.625 46.206,91.353 45,91.353 "/>
<path fill="none" stroke="#063190" stroke-width="1.5" stroke-linecap="round" stroke-linejoin="round" stroke-miterlimit="10" d="
	M52.924,52.082h10.312l11.923-4.834L58.991,25.915l9.184-6.929c0,0,24.478,25.127,24.316,30.929
	c-0.107,3.879-11.006,11.409-17.617,16.456c-3.642,2.781-5.947,6.961-6.331,11.526l-0.385,47.351"/>
<line fill="none" stroke="#063190" stroke-width="1.5" stroke-linecap="round" stroke-linejoin="round" stroke-miterlimit="10" x1="75.158" y1="47.248" x2="77.491" y2="51.081"/>
<path fill="#FEF5E6" d="M66.658,19.415L54.491,8.081c0,0-2.5-0.5-2,1.334c0.5,1.833,3.782,5.483,4.667,7.166
	c1.667,3.167,5.167,6.667,5.167,6.667"/>
<path fill="none" stroke="#063190" stroke-width="1.5" stroke-linecap="round" stroke-linejoin="round" stroke-miterlimit="10" d="
	M66.658,19.415L54.491,8.081c0,0-2.5-0.5-2,1.334c0.5,1.833,3.782,5.483,4.667,7.166c1.667,3.167,5.167,6.667,5.167,6.667"/>
<line fill="none" stroke="#063190" stroke-width="1.5" stroke-linecap="round" stroke-linejoin="round" stroke-miterlimit="10" x1="19.491" y1="73.915" x2="20.325" y2="77.415"/>
<line fill="none" stroke="#063190" stroke-width="1.5" stroke-linecap="round" stroke-linejoin="round" stroke-miterlimit="10" x1="15.325" y1="90.415" x2="17.825" y2="94.415"/>
<path fill="#063190" d="M11.958,128.408l4.367-0.66L5.163,57.13c-0.169-1.116-1.209-1.883-2.324-1.714l-0.33,0.051
	c-1.113,0.168-1.882,1.209-1.713,2.323L11.958,128.408z"/>
<path fill="#FEF5E6" d="M5.624,90.504l4.305-0.651c0.956-0.145,1.613-1.036,1.469-1.992l-0.004-0.025
	c-0.145-0.956-1.037-1.613-1.992-1.469l-4.305,0.65c-0.955,0.145-1.613,1.037-1.469,1.992l0.004,0.026
	C3.776,89.991,4.668,90.648,5.624,90.504"/>
<path fill="none" stroke="#063190" stroke-width="1.3" stroke-miterlimit="10" d="M5.624,90.504l4.305-0.651
	c0.956-0.145,1.613-1.036,1.469-1.992l-0.004-0.025c-0.145-0.956-1.037-1.613-1.992-1.469l-4.305,0.65
	c-0.955,0.145-1.613,1.037-1.469,1.992l0.004,0.026C3.776,89.991,4.668,90.648,5.624,90.504z"/>
<path fill="#FEF5E6" d="M16.096,93.072l-0.599-3.953c-0.144-0.955-1.035-1.613-1.991-1.469l-0.121,0.019
	c-0.956,0.145-1.613,1.036-1.47,1.992l0.598,3.952c0.145,0.956,1.037,1.613,1.992,1.469l0.121-0.019
	C15.583,94.919,16.241,94.027,16.096,93.072"/>
<path fill="none" stroke="#063190" stroke-width="1.3" stroke-miterlimit="10" d="M16.096,93.072l-0.599-3.953
	c-0.144-0.955-1.035-1.613-1.991-1.469l-0.121,0.019c-0.956,0.145-1.613,1.036-1.47,1.992l0.598,3.952
	c0.145,0.956,1.037,1.613,1.992,1.469l0.121-0.019C15.583,94.919,16.241,94.027,16.096,93.072z"/>
<path fill="#FEF5E6" d="M6.163,94.07l4.305-0.651c0.956-0.145,1.613-1.036,1.469-1.993L11.933,91.4
	c-0.145-0.955-1.037-1.613-1.992-1.469l-4.305,0.651c-0.955,0.145-1.613,1.036-1.469,1.992l0.004,0.026
	C4.315,93.557,5.207,94.214,6.163,94.07"/>
<path fill="none" stroke="#063190" stroke-width="1.3" stroke-miterlimit="10" d="M6.163,94.07l4.305-0.651
	c0.956-0.145,1.613-1.036,1.469-1.993L11.933,91.4c-0.145-0.955-1.037-1.613-1.992-1.469l-4.305,0.651
	c-0.955,0.145-1.613,1.036-1.469,1.992l0.004,0.026C4.315,93.557,5.207,94.214,6.163,94.07z"/>
<path fill="#FEF5E6" d="M6.75,97.953l4.306-0.651c0.955-0.145,1.613-1.036,1.469-1.993l-0.004-0.024
	c-0.145-0.956-1.037-1.613-1.992-1.469l-4.306,0.65c-0.956,0.145-1.614,1.036-1.469,1.992l0.004,0.026
	C4.901,97.439,5.794,98.098,6.75,97.953"/>
<path fill="none" stroke="#063190" stroke-width="1.3" stroke-miterlimit="10" d="M6.75,97.953l4.306-0.651
	c0.955-0.145,1.613-1.036,1.469-1.993l-0.004-0.024c-0.145-0.956-1.037-1.613-1.992-1.469l-4.306,0.65
	c-0.956,0.145-1.614,1.036-1.469,1.992l0.004,0.026C4.901,97.439,5.794,98.098,6.75,97.953z"/>
<path fill="#FEF5E6" d="M7.289,101.519l4.306-0.65c0.955-0.145,1.613-1.037,1.469-1.993L13.06,98.85
	c-0.145-0.955-1.037-1.613-1.992-1.469l-4.306,0.651c-0.954,0.145-1.614,1.036-1.469,1.992l0.004,0.025
	C5.44,101.006,6.333,101.663,7.289,101.519"/>
<path fill="none" stroke="#063190" stroke-width="1.3" stroke-miterlimit="10" d="M7.289,101.519l4.306-0.65
	c0.955-0.145,1.613-1.037,1.469-1.993L13.06,98.85c-0.145-0.955-1.037-1.613-1.992-1.469l-4.306,0.651
	c-0.954,0.145-1.614,1.036-1.469,1.992l0.004,0.025C5.44,101.006,6.333,101.663,7.289,101.519z"/>
</svg>
