<?xml version="1.0" encoding="utf-8"?>
<!-- Generator: Adobe Illustrator 16.0.0, SVG Export Plug-In . SVG Version: 6.00 Build 0)  -->
<!DOCTYPE svg PUBLIC "-//W3C//DTD SVG 1.1//EN" "http://www.w3.org/Graphics/SVG/1.1/DTD/svg11.dtd">
<svg version="1.1" id="Layer_1" xmlns="http://www.w3.org/2000/svg" xmlns:xlink="http://www.w3.org/1999/xlink" x="0px" y="0px"
	 width="71.125px" height="105px" viewBox="0 0 71.125 105" enable-background="new 0 0 71.125 105" xml:space="preserve">
<g>
	<defs>
		<rect id="SVGID_1_" width="71.125" height="106.5"/>
	</defs>
	<clipPath id="SVGID_2_">
		<use xlink:href="#SVGID_1_"  overflow="visible"/>
	</clipPath>
	<path clip-path="url(#SVGID_2_)" fill="#063090" d="M20.25,15.125c0,0,2.125,8.25-2.75,12.125s-6.5,9-2.875,12.625
		S32.75,45,38.125,45S42.75,8.625,42.75,8.625"/>
	<path clip-path="url(#SVGID_2_)" fill="#063090" d="M53.191,15.5c0,0-2.125,8.25,2.75,12.125s6.5,9,2.875,12.625
		s-18.125,5.125-23.5,5.125S30.691,9,30.691,9"/>
	<path clip-path="url(#SVGID_2_)" fill="#FEF5E6" d="M25.25,51.188l3,2.563c0,0,6.625,1.562,6.813,1.562c0.187,0,5-0.125,5-0.125
		l5.062-1.375l3-2l-1.25-0.687l-0.417-11.292c0,0,1.723-0.821,2.792-2.959l0.562-2.499c0,0,1.875,0.437,2.5-0.813
		s1.25-3.25,0.625-4.5s-2.562-2.437-2.562-2.437l-0.188-4.188l-6.854-12.063l-12.916,4.5c0,0-6.104,5.001-6.104,5.188
		c0,0.188-0.625,3.125-0.625,3.125v4.188c0,0-1.626-0.938-2.438-0.438s-1.687,2.25-1.062,3.813c0.625,1.562,1.999,2.687,2.749,2.937
		c0,0,2.438,5.437,3.688,6.187L26.75,44.5l-0.313,5.687L25.25,51.188"/>
	
		<path clip-path="url(#SVGID_2_)" fill="none" stroke="#063090" stroke-width="1.3" stroke-linecap="round" stroke-linejoin="round" stroke-miterlimit="10" d="
		M50.461,27.869c0,0,1.526-1.406,2.227,0.795s0.5,6.403-2.701,5.503l-0.509,1.767l-0.826,1.653
		c-0.708,1.062-2.402,3.437-7.082,4.721c-5.861,1.609-10.411-0.036-10.411-0.036c-6.851-2.126-7.915-8.859-7.915-8.859
		s-2.683,0.397-3.273-2.554c-0.59-2.95,0.236-4.484,2.478-4.367"/>
	<path clip-path="url(#SVGID_2_)" fill="#063090" d="M43.977,23.154c0,0.588-0.476,1.063-1.063,1.063
		c-0.588,0-1.063-0.475-1.063-1.063c0-0.587,0.476-1.062,1.063-1.062C43.501,22.092,43.977,22.567,43.977,23.154"/>
	<path clip-path="url(#SVGID_2_)" fill="#063090" d="M32.192,23.154c0,0.588-0.476,1.063-1.062,1.063
		c-0.588,0-1.064-0.475-1.064-1.063c0-0.587,0.476-1.062,1.064-1.062C31.716,22.092,32.192,22.567,32.192,23.154"/>
	<path clip-path="url(#SVGID_2_)" fill="#063090" d="M38.801,31.221c-0.31-0.019-0.418,0.123-0.68,0.279
		c-0.345,0.206-0.741,0.335-1.142,0.373c-0.821,0.077-1.405-0.279-2.073-0.686c-0.261-0.16-0.592,0.161-0.425,0.426
		c0.507,0.805,1.586,1.121,2.498,1.08c0.661-0.03,2.096-0.368,2.066-1.227C39.041,31.327,38.938,31.229,38.801,31.221"/>
	<path clip-path="url(#SVGID_2_)" fill="#063090" d="M37.726,27.579c-0.374-0.153-0.711-0.114-1.109-0.147
		c-0.427-0.036-0.811-0.153-1.223-0.249c-0.237-0.056-0.465,0.257-0.255,0.437c0.633,0.543,1.922,0.999,2.65,0.445
		C37.98,27.92,37.946,27.67,37.726,27.579"/>
	<path clip-path="url(#SVGID_2_)" fill="#063090" d="M23.328,29.823c-0.192-0.282-0.454-0.248-0.757-0.308
		c-0.266-0.052-0.492-0.192-0.751-0.262c-0.256-0.072-0.498,0.223-0.351,0.457c0.177,0.285,0.485,0.453,0.789,0.58
		c0.305,0.128,0.76,0.279,1.012-0.02C23.371,30.151,23.425,29.965,23.328,29.823"/>
	<path clip-path="url(#SVGID_2_)" fill="#063090" d="M49.723,30.768c0.192-0.282,0.454-0.249,0.757-0.308
		c0.267-0.052,0.492-0.192,0.751-0.263c0.256-0.071,0.498,0.224,0.352,0.458c-0.178,0.285-0.485,0.453-0.789,0.58
		c-0.306,0.128-0.761,0.279-1.013-0.02C49.68,31.096,49.626,30.91,49.723,30.768"/>
	
		<line clip-path="url(#SVGID_2_)" fill="none" stroke="#063090" stroke-width="1.5" stroke-linecap="round" stroke-linejoin="round" stroke-miterlimit="10" x1="46.417" y1="40.25" x2="46.583" y2="52.167"/>
	<path clip-path="url(#SVGID_2_)" fill="#FFFFFF" d="M47.625,52c-10.75,8.25-22.25-0.25-22.25-0.25s-18.125,5.375-21,14
		s-3.625,40-3.625,40h69.625c0,0-2.25-34.875-4.625-41.5s-18-12-18-12"/>
	
		<path clip-path="url(#SVGID_2_)" fill="none" stroke="#063090" stroke-width="1.5" stroke-linecap="round" stroke-linejoin="round" stroke-miterlimit="10" d="
		M47.625,52c-10.75,8.25-22.25-0.25-22.25-0.25s-18.125,5.375-21,14s-3.625,40-3.625,40h69.625c0,0-2.25-34.875-4.625-41.5
		s-18-12-18-12"/>
	<path clip-path="url(#SVGID_2_)" fill="#063090" d="M22.213,26.06l0.551,1.889c0.798,0.519,1.857-0.028,1.894-0.979l0.309-7.913
		l-2.36-1.81L22.213,26.06z"/>
	<path clip-path="url(#SVGID_2_)" fill="#063090" d="M51.717,26.477l-0.551,1.889c-0.797,0.519-1.856-0.029-1.894-0.979l-0.31-7.913
		l2.361-1.81L51.717,26.477z"/>
	<path clip-path="url(#SVGID_2_)" fill="#063090" d="M49.609,79.197c-0.098,0.259-0.236,0.497-0.414,0.715
		c-0.179,0.221-0.392,0.418-0.64,0.592c-0.247,0.17-0.507,0.299-0.781,0.39c-0.274,0.09-0.545,0.134-0.813,0.133
		c-0.271,0-0.51-0.046-0.715-0.138c-0.202-0.089-0.362-0.221-0.483-0.396c-0.116-0.166-0.179-0.361-0.188-0.588
		c-0.011-0.214,0.034-0.453,0.136-0.719c0.1-0.263,0.237-0.503,0.412-0.722c0.182-0.226,0.392-0.42,0.634-0.585
		c0.248-0.171,0.509-0.302,0.783-0.392c0.27-0.091,0.543-0.135,0.819-0.135c0.271,0.001,0.51,0.047,0.715,0.139
		c0.199,0.092,0.359,0.224,0.483,0.396c0.112,0.176,0.175,0.372,0.187,0.591C49.752,78.702,49.707,78.942,49.609,79.197
		 M47.367,79.967c0.213,0,0.414-0.07,0.602-0.212c0.183-0.136,0.319-0.323,0.41-0.561c0.09-0.237,0.097-0.427,0.02-0.569
		c-0.082-0.143-0.229-0.214-0.439-0.215c-0.219,0-0.422,0.071-0.607,0.216c-0.19,0.146-0.328,0.335-0.416,0.564
		c-0.089,0.234-0.094,0.423-0.013,0.562C47,79.895,47.147,79.966,47.367,79.967"/>
	<path clip-path="url(#SVGID_2_)" fill="#063090" d="M48.259,76.319c-0.678,0.095-1.358,0.454-1.92,0.871h0.198
		c-0.002,0.001-0.004,0.003-0.004,0.003c0.001-0.001,0.003-0.002,0.005-0.003c0.07-0.045,0.142-0.088,0.214-0.129
		c0.516-0.291,1.083-0.465,1.626-0.463c0.621,0.002,1.076,0.231,1.366,0.604l1.241,0.003c-0.458-0.484-0.984-0.734-1.468-0.838
		C49.175,76.285,48.748,76.243,48.259,76.319"/>
	<path clip-path="url(#SVGID_2_)" fill="#063090" d="M47.046,82.068c0.678-0.094,1.358-0.453,1.92-0.87l-0.198-0.001
		c0.001-0.001,0.004-0.003,0.004-0.003c-0.002,0.001-0.003,0.002-0.005,0.003c-0.07,0.046-0.142,0.089-0.214,0.13
		c-0.517,0.291-1.083,0.464-1.626,0.463c-0.622-0.002-1.076-0.231-1.366-0.604l-1.241-0.004c0.458,0.485,0.983,0.735,1.468,0.838
		C46.13,82.104,46.557,82.146,47.046,82.068"/>
	<path clip-path="url(#SVGID_2_)" fill="#063090" d="M27.434,76.296h-1.338c0,0-1.352,1.774-1.642,2.117
		c0.124-0.401,0.621-2.117,0.621-2.117h-0.992c0,0-1.295,1.869-1.544,2.206c0.078-0.389,0.368-2.206,0.368-2.206h-1.284
		l-0.751,4.559h0.855c0,0,1.198-1.541,1.487-1.903c-0.124,0.416-0.559,1.903-0.559,1.903h1.202l3.695-4.559H27.434z"/>
	<path clip-path="url(#SVGID_2_)" fill="#063090" d="M28.588,80.854l-0.14-3.347h-1.267l-2.812,3.347h1.241l0.479-0.581h1.328
		l-0.033,0.581H28.588z M26.751,79.476l0.779-0.945l-0.059,0.948C27.38,79.478,26.917,79.477,26.751,79.476"/>
	<path clip-path="url(#SVGID_2_)" fill="#063090" d="M28.872,80.822c0.303,0.118,0.634,0.177,0.883,0.177
		c1.047,0.003,1.641-0.259,1.965-1.069c0.252-0.633-0.118-0.848-0.599-1.128c-0.28-0.163-0.408-0.255-0.362-0.363
		c0.049-0.117,0.25-0.146,0.44-0.152c0.502-0.021,0.883,0.39,0.883,0.39l0.419-0.919L32.47,77.73
		c-0.28-0.263-0.759-0.423-1.272-0.425c-0.811-0.002-1.422,0.321-1.684,0.945c-0.184,0.436-0.023,0.961,0.408,1.226l0.131,0.08
		c0.2,0.12,0.271,0.217,0.243,0.28c-0.076,0.168-0.302,0.183-0.475,0.168c-0.489-0.043-1.011-0.27-1.011-0.27L28.872,80.822z"/>
	<path clip-path="url(#SVGID_2_)" fill="#063090" d="M35.104,77.508l-0.535,1.178h-0.888c0.056-0.125,0.529-1.178,0.529-1.178
		h-1.217l-1.511,3.347h1.212l0.552-1.208h0.89l-0.546,1.208h1.223l1.517-3.347H35.104z"/>
	<polygon clip-path="url(#SVGID_2_)" fill="#063090" points="39.837,77.315 40.281,76.33 37.259,76.33 35.269,80.854 38.356,80.854 
		38.771,79.905 37.073,79.905 37.442,79.069 39.041,79.069 39.471,78.115 37.863,78.115 38.213,77.315 	"/>
	<path clip-path="url(#SVGID_2_)" fill="#063090" d="M44.928,77.508l-0.848,1.85c-0.163,0.367-0.29,0.473-0.568,0.472l-0.589-0.001
		l-0.447,1.026h1.109c0.707,0.002,1.216-0.368,1.6-1.229l0.965-2.117H44.928z"/>
	<path clip-path="url(#SVGID_2_)" fill="#063090" d="M52.297,77.508c0,0-0.92,0.813-1.04,0.914
		c-0.032-0.135-0.211-0.914-0.211-0.914h-1.247c0,0,0.458,1.815,0.467,1.851l-0.679,1.496h1.189l0.623-1.39
		c0.021-0.017,2.309-1.957,2.309-1.957H52.297z"/>
	<polygon clip-path="url(#SVGID_2_)" fill="#063090" points="40.223,77.508 41.342,77.508 41.563,79.258 42.347,77.508 
		43.586,77.508 42.08,80.854 40.929,80.854 40.708,79.127 39.924,80.854 38.717,80.854 	"/>
	<path clip-path="url(#SVGID_2_)" fill="#063090" d="M52.333,23.167c0.641-0.986,1.868-5.931,1.397-9.32
		c-0.493-3.549-1.257-7.91-5.323-7.985c0,0-1.972-4.83-7.294-5.618C35.79-0.545,28.102,0.44,23.862,5.271
		c-4.238,4.831-3.646,11.041-2.957,13.504c0.691,2.465,1.479,4.338,1.183,5.225c0,0,8.136-4.044,10.204-6.958
		c3.666-5.167,8.5-4.875,11.375-3.542c0,0,3.625,7.292,5.75,8.833c2.125,1.542,1.791,2.792,1.791,2.792L52.333,23.167z"/>
	<path clip-path="url(#SVGID_2_)" fill="#063090" d="M45.92,20.113c-1.371-0.757-3.084-0.992-4.627-1.111
		c-0.555-0.043-0.536,0.795,0,0.855c1.506,0.171,2.835,0.692,4.28,1.079C46.06,21.067,46.375,20.364,45.92,20.113"/>
	<path clip-path="url(#SVGID_2_)" fill="#063090" d="M27.688,20.029c1.371-0.757,3.084-0.992,4.627-1.111
		c0.556-0.043,0.536,0.795,0,0.856c-1.505,0.17-2.835,0.692-4.28,1.079C27.547,20.984,27.232,20.28,27.688,20.029"/>
	
		<line clip-path="url(#SVGID_2_)" fill="none" stroke="#063090" stroke-width="1.5" stroke-linecap="round" stroke-linejoin="round" stroke-miterlimit="10" x1="26.375" y1="51.875" x2="27" y2="40.25"/>
	<path clip-path="url(#SVGID_2_)" fill="#FFFFFF" d="M47.5,48.438c-0.75,0.25-11,4.5-11,4.5l3.25,7l10.5-7.313L47.5,48.438z"/>
	
		<path clip-path="url(#SVGID_2_)" fill="none" stroke="#063090" stroke-width="1.3" stroke-linecap="round" stroke-linejoin="round" stroke-miterlimit="10" d="
		M47.5,48.438c-0.75,0.25-11,4.5-11,4.5l3.25,7l10.5-7.313L47.5,48.438z"/>
	<path clip-path="url(#SVGID_2_)" fill="#FFFFFF" d="M25.563,48.438c0.75,0.25,11,4.5,11,4.5l-3.25,7L22.25,52.625L25.563,48.438z"
		/>
	
		<path clip-path="url(#SVGID_2_)" fill="none" stroke="#063090" stroke-width="1.3" stroke-linecap="round" stroke-linejoin="round" stroke-miterlimit="10" d="
		M25.563,48.438c0.75,0.25,11,4.5,11,4.5l-3.25,7L22.25,52.625L25.563,48.438z"/>
	<line clip-path="url(#SVGID_2_)" fill="#FFFFFF" x1="56.875" y1="74.5" x2="58.375" y2="105.437"/>
	
		<line clip-path="url(#SVGID_2_)" fill="none" stroke="#063090" stroke-width="1.5" stroke-linecap="round" stroke-linejoin="round" stroke-miterlimit="10" x1="56.875" y1="74.5" x2="58.375" y2="105.437"/>
	<line clip-path="url(#SVGID_2_)" fill="#FFFFFF" x1="14.625" y1="75.688" x2="12.375" y2="105.249"/>
	
		<line clip-path="url(#SVGID_2_)" fill="none" stroke="#063090" stroke-width="1.5" stroke-linecap="round" stroke-linejoin="round" stroke-miterlimit="10" x1="14.625" y1="75.688" x2="12.375" y2="105.249"/>
	<path clip-path="url(#SVGID_2_)" fill="#063090" d="M38.25,37.625c0,1.035-0.84,1.875-1.875,1.875S34.5,38.66,34.5,37.625
		s0.84-1.875,1.875-1.875S38.25,36.59,38.25,37.625"/>
	
		<path clip-path="url(#SVGID_2_)" fill="none" stroke="#063090" stroke-width="1.5" stroke-linecap="round" stroke-linejoin="round" stroke-miterlimit="10" d="
		M37.625,37.5h8.125c3.313,0,4.625-2.812,4.625-6.125l0.25,0.125"/>
	<path clip-path="url(#SVGID_2_)" fill="#063090" d="M53.75,30.5c0,1.726-1.399,3.125-3.125,3.125S47.5,32.226,47.5,30.5
		s1.399-3.125,3.125-3.125S53.75,28.774,53.75,30.5"/>
</g>
</svg>
