<?xml version="1.0" encoding="utf-8"?>
<!-- Generator: Adobe Illustrator 16.0.0, SVG Export Plug-In . SVG Version: 6.00 Build 0)  -->
<!DOCTYPE svg PUBLIC "-//W3C//DTD SVG 1.1//EN" "http://www.w3.org/Graphics/SVG/1.1/DTD/svg11.dtd">
<svg version="1.1" id="Layer_1" xmlns="http://www.w3.org/2000/svg" xmlns:xlink="http://www.w3.org/1999/xlink" x="0px" y="0px"
	 width="29px" height="38px" viewBox="0 0 29 38" enable-background="new 0 0 29 38" xml:space="preserve">
<g>
	<polygon fill="#ABABAB" points="5.818,34.944 5.818,37.9 6.167,37.9 6.167,36.52 7.349,36.52 7.349,36.226 6.167,36.226 
		6.167,35.242 7.647,35.242 7.647,34.944 	"/>
	<polygon fill="#ABABAB" points="7.818,34.944 7.818,35.242 8.478,35.242 8.478,37.602 7.818,37.602 7.818,37.9 9.479,37.9 
		9.479,37.602 8.82,37.602 8.82,35.242 9.479,35.242 9.479,34.944 	"/>
	<polygon fill="#ABABAB" points="11.709,34.944 11.709,37.281 11.697,37.281 10.195,34.944 9.846,34.944 9.846,37.9 10.17,37.9 
		10.17,35.512 10.178,35.512 11.705,37.908 12.028,37.908 12.028,34.944 	"/>
	<path fill="#ABABAB" d="M13.483,35.368h0.009l0.493,1.396H12.99L13.483,35.368z M13.338,34.924l-1.102,2.976h0.358l0.297-0.85
		h1.195l0.302,0.85h0.363l-1.085-2.976H13.338z"/>
	<polygon fill="#ABABAB" points="14.964,34.944 14.964,37.9 16.793,37.9 16.793,37.602 15.313,37.602 15.313,34.944 	"/>
	<polygon fill="#ABABAB" points="16.958,34.944 16.958,35.242 17.618,35.242 17.618,37.602 16.958,37.602 16.958,37.9 18.621,37.9 
		18.621,37.602 17.962,37.602 17.962,35.242 18.621,35.242 18.621,34.944 	"/>
	<g>
		<defs>
			<rect id="SVGID_1_" width="29" height="38"/>
		</defs>
		<clipPath id="SVGID_2_">
			<use xlink:href="#SVGID_1_"  overflow="visible"/>
		</clipPath>
		<path clip-path="url(#SVGID_2_)" fill="#ABABAB" d="M19.945,37.95c-0.597,0-0.996-0.295-1.11-0.78l0.344-0.078
			c0.09,0.319,0.337,0.563,0.771,0.563c0.332,0,0.697-0.17,0.697-0.552c0-0.294-0.212-0.435-0.494-0.509
			c-0.047-0.017-0.561-0.171-0.607-0.188c-0.303-0.103-0.562-0.327-0.562-0.688c0-0.531,0.426-0.825,0.966-0.825
			c0.472,0,0.829,0.149,1.003,0.572l-0.292,0.132c-0.145-0.294-0.366-0.414-0.707-0.414c-0.31,0-0.613,0.17-0.613,0.48
			c0,0.241,0.18,0.382,0.422,0.452c0.053,0.017,0.579,0.179,0.63,0.195c0.332,0.107,0.617,0.323,0.617,0.75
			C21.009,37.639,20.527,37.95,19.945,37.95"/>
		<polygon clip-path="url(#SVGID_2_)" fill="#ABABAB" points="22.336,35.242 22.336,37.9 21.978,37.9 21.978,35.242 21.102,35.242 
			21.102,34.944 23.208,34.944 23.208,35.242 		"/>
		<polygon clip-path="url(#SVGID_2_)" fill="#535453" points="29.001,4.917 0.384,0 0.384,23.363 24.896,27.575 		"/>
		<polygon clip-path="url(#SVGID_2_)" fill="#ABABAB" points="19.232,9.789 14.806,16.922 13.295,8.769 11.653,8.488 7.234,15.584 
			5.743,7.472 3.77,7.133 5.933,18.266 7.527,18.539 11.93,11.564 13.483,19.563 15.108,19.842 19.706,12.574 20.462,16.439 
			19.051,16.196 17.99,17.875 20.813,18.36 21.337,20.913 23.194,21.231 21.172,10.122 		"/>
		<polygon clip-path="url(#SVGID_2_)" fill="#535453" points="4.697,29.751 3.672,33.477 3.05,33.477 2.346,31.216 1.643,33.477 
			1.021,33.477 0,29.751 0.779,29.751 1.369,32.101 2.067,29.751 2.625,29.751 3.323,32.101 3.919,29.751 		"/>
		<polygon clip-path="url(#SVGID_2_)" fill="#535453" points="7.581,33.477 5.064,33.477 5.064,29.751 7.581,29.751 7.581,30.4 
			5.81,30.4 5.81,31.274 7.32,31.274 7.32,31.923 5.81,31.923 5.81,32.827 7.581,32.827 		"/>
		<path clip-path="url(#SVGID_2_)" fill="#535453" d="M10.873,32.403c0,0.339-0.107,0.603-0.321,0.791
			c-0.215,0.188-0.499,0.282-0.848,0.282H8.103v-3.726h1.536c0.369,0,0.658,0.094,0.867,0.279c0.21,0.188,0.315,0.443,0.315,0.767
			c0,0.189-0.055,0.358-0.162,0.509c-0.086,0.118-0.19,0.205-0.311,0.261c0.145,0.067,0.263,0.156,0.349,0.267
			C10.813,31.987,10.873,32.178,10.873,32.403 M10.074,30.829c0-0.129-0.045-0.232-0.133-0.312C9.854,30.439,9.733,30.4,9.579,30.4
			H8.85v0.858h0.729c0.157,0,0.28-0.039,0.367-0.116C10.03,31.067,10.074,30.962,10.074,30.829 M10.127,32.367
			c0-0.132-0.04-0.239-0.118-0.319c-0.09-0.09-0.217-0.136-0.381-0.136H8.85v0.915h0.779c0.159,0,0.284-0.043,0.369-0.131
			C10.084,32.61,10.127,32.5,10.127,32.367"/>
		<path clip-path="url(#SVGID_2_)" fill="#535453" d="M14.871,33.478h-0.778l-0.227-0.66h-1.358l-0.23,0.66H11.5l1.39-3.727h0.583
			L14.871,33.478z M13.668,32.206l-0.467-1.355l-0.483,1.355H13.668z"/>
		<polygon clip-path="url(#SVGID_2_)" fill="#535453" points="19.212,29.751 18.186,33.477 17.563,33.477 16.86,31.216 
			16.155,33.477 15.534,33.477 14.513,29.751 15.292,29.751 15.882,32.101 16.579,29.751 17.139,29.751 17.836,32.101 
			18.433,29.751 		"/>
		<path clip-path="url(#SVGID_2_)" fill="#535453" d="M22.143,33.478h-0.777l-0.226-0.66h-1.358l-0.23,0.66h-0.779l1.392-3.727
			h0.586L22.143,33.478z M20.941,32.206l-0.468-1.355l-0.482,1.355H20.941z"/>
		<path clip-path="url(#SVGID_2_)" fill="#535453" d="M25.22,33.477h-0.863l-0.748-1.487h-0.539v1.487h-0.743v-3.726h1.497
			c0.38,0,0.685,0.111,0.912,0.336c0.22,0.212,0.328,0.479,0.328,0.805c0,0.243-0.069,0.456-0.21,0.632
			c-0.126,0.161-0.289,0.275-0.487,0.345L25.22,33.477z M24.317,30.889c0-0.148-0.05-0.268-0.149-0.356
			c-0.096-0.089-0.229-0.132-0.392-0.132h-0.707v0.979h0.707c0.16,0,0.29-0.045,0.391-0.136
			C24.267,31.153,24.317,31.035,24.317,30.889"/>
		<path clip-path="url(#SVGID_2_)" fill="#535453" d="M28.285,31.598v0.241c0,0.3-0.018,0.526-0.054,0.681
			c-0.053,0.236-0.164,0.438-0.334,0.601c-0.118,0.116-0.265,0.204-0.441,0.266c-0.178,0.061-0.367,0.091-0.567,0.091H25.51v-3.726
			h1.379c0.203,0,0.393,0.029,0.564,0.086c0.172,0.058,0.32,0.148,0.444,0.27c0.17,0.165,0.281,0.36,0.334,0.586
			c0.036,0.15,0.054,0.375,0.054,0.67V31.598z M27.539,31.598c0-0.301-0.009-0.515-0.028-0.646
			c-0.021-0.132-0.066-0.237-0.129-0.316c-0.067-0.081-0.145-0.14-0.235-0.178c-0.09-0.038-0.199-0.058-0.327-0.058h-0.564v2.427
			h0.564c0.244,0,0.431-0.076,0.558-0.229c0.067-0.082,0.112-0.188,0.134-0.327C27.53,32.134,27.539,31.91,27.539,31.598"/>
		<path clip-path="url(#SVGID_2_)" fill="#535453" d="M0.73,37.658h0.644v-2.104H0.861v-0.223c0.256-0.046,0.442-0.112,0.599-0.2
			h0.276v2.526h0.58v0.292H0.73V37.658z"/>
		<path clip-path="url(#SVGID_2_)" fill="#535453" d="M2.355,37.25c0-0.376,0.268-0.638,0.533-0.776v-0.018
			c-0.214-0.144-0.392-0.354-0.392-0.651c0-0.43,0.34-0.715,0.794-0.715c0.492,0,0.793,0.308,0.793,0.742
			c0,0.296-0.213,0.55-0.387,0.681v0.019c0.252,0.143,0.488,0.354,0.488,0.738c0,0.411-0.362,0.73-0.906,0.73
			C2.746,38,2.355,37.685,2.355,37.25 M3.842,37.262c0-0.377-0.354-0.519-0.765-0.681c-0.232,0.146-0.394,0.369-0.394,0.639
			c0,0.3,0.256,0.519,0.603,0.519C3.618,37.738,3.842,37.543,3.842,37.262 M3.775,35.852c0-0.277-0.182-0.504-0.493-0.504
			c-0.265,0-0.458,0.185-0.458,0.457c0,0.339,0.312,0.484,0.651,0.615C3.672,36.251,3.775,36.059,3.775,35.852"/>
	</g>
</g>
</svg>
