<?xml version="1.0" encoding="utf-8"?>
<!-- Generator: Adobe Illustrator 16.0.0, SVG Export Plug-In . SVG Version: 6.00 Build 0)  -->
<!DOCTYPE svg PUBLIC "-//W3C//DTD SVG 1.1//EN" "http://www.w3.org/Graphics/SVG/1.1/DTD/svg11.dtd">
<svg version="1.1" id="Layer_1" xmlns="http://www.w3.org/2000/svg" xmlns:xlink="http://www.w3.org/1999/xlink" x="0px" y="0px"
	 width="93px" height="27px" viewBox="0 0 93 27" enable-background="new 0 0 93 27" xml:space="preserve">
<g>
	<defs>
		<rect id="SVGID_1_" width="93" height="27"/>
	</defs>
	<clipPath id="SVGID_2_">
		<use xlink:href="#SVGID_1_"  overflow="visible"/>
	</clipPath>
	<path clip-path="url(#SVGID_2_)" fill="#555655" d="M20.398,2.351c-0.736-0.973-1.799-1.686-2.97-2.054
		c-0.539-0.17-1.101-0.268-1.666-0.291c-1.165-0.046-2.334,0.21-3.387,0.697c-2.213,1.023-3.335,2.887-3.365,5.335
		C8.994,7.447,8.982,7.463,7.513,7.47C6.625,7.473,5.762,7.612,4.914,7.841c-2.7,0.729-4.672,3.028-4.849,5.581
		c-0.127,2.178-0.144,2.915,0.706,4.71c1.362,2.879,3.813,4.253,7.103,4.189c0.833-0.082,1.157,0.294,1.147,1.104
		C8.996,25.478,8.9,27,9.217,27c1.556,0,4.476-0.045,4.706-0.045c0.653-0.146,0.589-0.592,0.608-1.149
		c0.027-0.787,0.032-1.576,0.01-2.362c-0.015-0.563-0.032-1.068,0.59-1.098c0.918-0.044,1.824-0.059,2.74-0.19
		c0.348-0.051,0.739-0.1,1.001-0.355c0.325-0.317,0.249-0.872,0.268-1.29c0.031-0.7,0.027-1.401-0.011-2.102
		c-0.027-0.49,0.073-1.305-0.496-1.539c-0.182-0.075-0.384-0.093-0.581-0.101c-0.763-0.031-1.525,0.046-2.28,0.147
		c-0.355,0.049-1.35,0.313-1.354-0.318c-0.019-2.658-0.375-4.011,0.672-3.97c0.405,0.016,0.8-0.094,1.199-0.165
		c0.408-0.074,0.809-0.187,1.195-0.336c2.109-0.821,3.481-2.815,3.87-4.963c0.052-0.289,0.087-0.58,0.103-0.872
		C21.534,4.929,21.235,3.459,20.398,2.351 M9.248,13.607c0,0.928-0.002,1.857-0.008,2.787c-0.003,0.418-0.069,0.854-0.554,0.956
		c-1.671,0.352-3.267-0.543-3.766-1.881c-0.302-0.81-0.113-1.733,0.545-2.317c0.629-0.56,1.548-0.693,2.366-0.691
		c0.309,0.001,0.897-0.049,1.165,0.122C9.33,12.795,9.248,13.271,9.248,13.607 M16.017,7.269c-0.368,0.252-0.849,0.381-1.269,0.359
		c-0.199-0.01-0.41-0.057-0.545-0.199c-0.138-0.145-0.169-0.357-0.172-0.554c-0.005-0.343,0.059-0.687,0.187-1.005
		c0.199-0.499,0.625-0.957,1.212-0.899c0.683,0.068,1.22,0.643,1.183,1.325C16.589,6.709,16.35,7.039,16.017,7.269"/>
	<path clip-path="url(#SVGID_2_)" fill="#555655" d="M46.743,8.618c0-0.897,0.633-1.519,1.257-1.848V6.725
		c-0.503-0.339-0.922-0.842-0.922-1.546c0-1.024,0.801-1.701,1.872-1.701c1.165,0,1.872,0.731,1.872,1.765
		c0,0.705-0.502,1.308-0.913,1.62v0.045c0.597,0.339,1.155,0.842,1.155,1.757c0,0.978-0.856,1.738-2.143,1.738
		C47.665,10.402,46.743,9.651,46.743,8.618 M50.254,8.646c0-0.897-0.838-1.235-1.806-1.619c-0.55,0.347-0.933,0.878-0.933,1.518
		c0,0.714,0.605,1.235,1.426,1.235C49.723,9.78,50.254,9.313,50.254,8.646 M50.096,5.289c0-0.659-0.429-1.198-1.165-1.198
		c-0.624,0-1.079,0.439-1.079,1.088c0,0.806,0.735,1.154,1.536,1.464C49.854,6.239,50.096,5.783,50.096,5.289"/>
	<path clip-path="url(#SVGID_2_)" fill="#555655" d="M31.552,9.825h3.103c0.201,0,0.365-0.161,0.365-0.359s-0.164-0.358-0.365-0.358
		H31.89c0-0.159,0.006-0.415,0.026-0.819c0.027-0.522,0.702-0.771,1.356-1.011c0.467-0.172,0.907-0.335,1.167-0.62
		c0.43-0.469,0.527-1.409,0.216-2.095c-0.241-0.529-0.684-0.833-1.217-0.833c-1.331,0-2.086,0.593-2.117,0.619
		c-0.155,0.125-0.178,0.35-0.052,0.504c0.126,0.152,0.357,0.175,0.512,0.053c0.006-0.005,0.606-0.458,1.657-0.458
		c0.242,0,0.427,0.137,0.55,0.408c0.194,0.429,0.151,1.061-0.091,1.324c-0.142,0.155-0.519,0.293-0.884,0.428
		c-0.791,0.292-1.775,0.655-1.826,1.646c-0.065,1.289-0.007,1.35,0.099,1.459C31.355,9.783,31.452,9.825,31.552,9.825"/>
	<path clip-path="url(#SVGID_2_)" fill="#555655" d="M38.731,10.124c0.504,0,0.915-0.157,1.221-0.463
		c0.655-0.659,0.628-1.843,0.609-2.652c-0.003-0.105-0.005-0.203-0.005-0.292c0-1.009,0-3.107-1.825-3.107
		c-2.19,0-2.19,2.338-2.19,3.107C36.541,7.908,36.541,10.124,38.731,10.124 M38.731,4.327c0.909,0,1.095,0.956,1.095,2.391
		c0,0.1,0.003,0.213,0.006,0.334c0.015,0.664,0.038,1.666-0.402,2.107c-0.166,0.166-0.394,0.247-0.699,0.247
		c-1.092,0-1.46-0.678-1.46-2.688C37.271,5.042,37.707,4.327,38.731,4.327"/>
	<path clip-path="url(#SVGID_2_)" fill="#555655" d="M45.423,10.183c0.201,0,0.365-0.161,0.365-0.358s-0.164-0.358-0.365-0.358
		H44.51V4.087c0-0.132-0.073-0.251-0.191-0.314c-0.118-0.064-0.261-0.058-0.373,0.015l-1.399,0.896
		c-0.082,0.053-0.138,0.132-0.158,0.227C42.368,5.004,42.387,5.1,42.44,5.179c0.11,0.165,0.336,0.213,0.505,0.105l0.835-0.535v4.717
		h-1.095c-0.201,0-0.365,0.161-0.365,0.358s0.164,0.358,0.365,0.358H45.423z"/>
	<path clip-path="url(#SVGID_2_)" fill="#555655" d="M60.354,8.949c0.35-0.67,0.396-1.358,0.399-1.438l0.006-0.12L60.03,7.358
		l-0.005,0.119c0,0.005-0.024,0.448-0.219,0.925c-0.555-0.56-1.309-1.336-1.927-2.003c0.458-0.63,0.632-1.327,0.455-1.839
		c-0.133-0.383-0.438-0.621-0.838-0.65c-0.463-0.036-0.858,0.109-1.116,0.408c-0.245,0.285-0.334,0.678-0.238,1.051
		c0.025,0.104,0.135,0.324,0.769,1.038c-0.036,0.035-0.073,0.069-0.112,0.103c-0.771,0.682-1.097,1.673-0.812,2.468
		c0.157,0.438,0.635,1.186,2.07,1.264c0.058,0.003,0.114,0.005,0.171,0.005c0.614,0,1.14-0.188,1.56-0.561
		c0.053-0.047,0.105-0.099,0.155-0.151c0.184,0.18,0.579,0.567,0.607,0.587l0.101,0.065l0.411-0.581l-0.09-0.07
		C60.938,9.51,60.812,9.401,60.354,8.949 M59.298,9.154c-0.306,0.271-0.708,0.395-1.199,0.372c-0.75-0.042-1.256-0.32-1.423-0.787
		c-0.188-0.524,0.059-1.206,0.611-1.696c0.039-0.034,0.075-0.067,0.111-0.101c0.662,0.71,1.45,1.507,2.029,2.083
		C59.386,9.071,59.343,9.114,59.298,9.154 M57.673,4.974c0.005,0.214-0.07,0.52-0.297,0.873c-0.409-0.461-0.504-0.608-0.525-0.655
		c-0.013-0.049-0.008-0.098-0.003-0.147c0.001-0.024-0.007-0.049-0.001-0.073c0.015-0.07,0.047-0.137,0.093-0.19
		c0.048-0.057,0.114-0.096,0.193-0.123c0.024-0.008,0.056-0.008,0.081-0.013c0.07-0.013,0.142-0.027,0.228-0.021
		c0.103,0.007,0.165,0.059,0.202,0.167C57.66,4.841,57.671,4.902,57.673,4.974"/>
	<path clip-path="url(#SVGID_2_)" fill="#555655" d="M65.233,3.663c-0.053-0.138-0.184-0.23-0.344-0.233
		c-0.149,0.01-0.28,0.095-0.334,0.218l-2.616,6.036C61.901,9.771,61.9,9.87,61.937,9.958c0.037,0.089,0.106,0.158,0.196,0.195
		c0.046,0.02,0.094,0.029,0.143,0.029c0.046,0,0.093-0.008,0.137-0.025c0.091-0.036,0.16-0.104,0.199-0.193l0.734-1.695
		c0.009,0.001,0.017,0.001,0.025,0.001h2.799c0.016,0,0.032-0.001,0.047-0.002l0.645,1.682c0.069,0.18,0.289,0.277,0.472,0.209
		c0.091-0.034,0.163-0.1,0.204-0.188c0.04-0.086,0.043-0.185,0.009-0.274L65.233,3.663z M65.943,7.554h-2.287l1.215-2.801
		L65.943,7.554z"/>
	<path clip-path="url(#SVGID_2_)" fill="#555655" d="M78.375,3.663c-0.053-0.138-0.184-0.23-0.344-0.233
		c-0.151,0.009-0.279,0.093-0.334,0.218l-2.616,6.036c-0.038,0.087-0.039,0.186-0.003,0.274c0.037,0.089,0.106,0.158,0.196,0.195
		c0.046,0.02,0.095,0.029,0.142,0.029c0.143,0,0.277-0.083,0.336-0.218l0.735-1.695c0.009,0.001,0.016,0.001,0.025,0.001h2.799
		c0.016,0,0.031-0.001,0.047-0.002l0.645,1.682c0.069,0.18,0.289,0.277,0.472,0.209c0.091-0.034,0.163-0.1,0.203-0.188
		c0.041-0.086,0.044-0.185,0.01-0.274L78.375,3.663z M79.085,7.554h-2.287l1.215-2.801L79.085,7.554z"/>
	<path clip-path="url(#SVGID_2_)" fill="#555655" d="M74.594,3.681c-0.096-0.024-0.193-0.01-0.277,0.039
		c-0.084,0.049-0.142,0.128-0.166,0.221l-1.192,4.687l-1.413-4.786l-0.652,0.003l-1.28,4.515l-1.019-4.411
		c-0.044-0.193-0.241-0.313-0.437-0.271c-0.095,0.021-0.176,0.077-0.228,0.158s-0.069,0.177-0.047,0.27l1.358,5.887l0.661,0.017
		l1.324-4.671l1.432,4.852l0.657-0.012l1.543-6.064c0.024-0.093,0.009-0.188-0.041-0.271C74.768,3.762,74.688,3.703,74.594,3.681"/>
	<path clip-path="url(#SVGID_2_)" fill="#555655" d="M37.421,17.065c-0.094-0.023-0.192-0.01-0.275,0.038
		c-0.085,0.049-0.145,0.129-0.168,0.224l-1.194,4.687l-1.387-4.701c-0.052-0.174-0.2-0.278-0.353-0.258
		c-0.162,0.001-0.306,0.109-0.35,0.262l-1.254,4.429l-1.019-4.411c-0.021-0.094-0.079-0.173-0.162-0.225
		c-0.082-0.051-0.179-0.067-0.275-0.046c-0.095,0.021-0.176,0.077-0.228,0.158c-0.052,0.081-0.069,0.177-0.047,0.271l1.338,5.795
		c0.038,0.161,0.18,0.275,0.351,0.28c0.169-0.001,0.313-0.105,0.357-0.262l1.298-4.582l1.407,4.764
		c0.045,0.152,0.189,0.259,0.357,0.259c0.165-0.002,0.308-0.114,0.348-0.271l1.52-5.976c0.025-0.093,0.01-0.189-0.04-0.271
		C37.595,17.146,37.515,17.089,37.421,17.065"/>
	<path clip-path="url(#SVGID_2_)" fill="#555655" d="M85.159,7.521c0.41-0.171,0.98-0.542,1.084-1.292
		c0.207-1.491-0.639-2.207-0.676-2.236c-0.065-0.054-0.148-0.083-0.233-0.083h-3.042c-0.202,0-0.364,0.161-0.364,0.358v5.797
		c0,0.197,0.162,0.358,0.364,0.358c0.201,0,0.365-0.161,0.365-0.358V7.673l1.74-0.003l1.599,2.579
		c0.066,0.108,0.184,0.173,0.313,0.173c0.065,0,0.132-0.019,0.188-0.052c0.083-0.05,0.143-0.128,0.165-0.222
		c0.023-0.093,0.008-0.189-0.043-0.271L85.159,7.521z M85.438,5.103c0.003,0.009,0.006,0.016,0.009,0.023
		c0.007,0.019,0.011,0.041,0.016,0.059c0.053,0.178,0.089,0.389,0.081,0.646c-0.002,0.095-0.01,0.194-0.023,0.3
		c-0.082,0.588-0.73,0.78-0.932,0.825h-1.932V4.625h2.521C85.249,4.709,85.357,4.868,85.438,5.103"/>
	<path clip-path="url(#SVGID_2_)" fill="#555655" d="M64.839,20.786c0.409-0.171,0.979-0.541,1.084-1.292
		c0.207-1.491-0.64-2.207-0.677-2.237c-0.064-0.054-0.147-0.083-0.232-0.083h-3.042c-0.201,0-0.365,0.161-0.365,0.358v5.796
		c0,0.198,0.164,0.359,0.365,0.359s0.365-0.161,0.365-0.359v-2.39l1.739-0.003l1.6,2.58c0.066,0.108,0.183,0.172,0.312,0.172
		c0.067,0,0.132-0.019,0.189-0.052c0.084-0.051,0.142-0.129,0.165-0.222c0.023-0.095,0.008-0.19-0.043-0.271L64.839,20.786z
		 M65.117,18.367c0.003,0.009,0.007,0.017,0.011,0.025c0.006,0.018,0.01,0.039,0.015,0.058c0.052,0.179,0.088,0.391,0.082,0.646
		c-0.003,0.094-0.01,0.193-0.025,0.299c-0.082,0.589-0.729,0.78-0.931,0.826h-1.932v-2.33h2.521
		C64.929,17.976,65.036,18.134,65.117,18.367"/>
	<path clip-path="url(#SVGID_2_)" fill="#555655" d="M92.214,4.749c-0.298-0.377-0.772-0.602-1.269-0.602H88.62
		c-0.202,0-0.366,0.161-0.366,0.358v5.319c0,0.197,0.164,0.358,0.366,0.358h2.213c0.568,0,1.084-0.285,1.382-0.761
		C92.573,8.846,93,7.951,93,6.956C93,5.957,92.572,5.205,92.214,4.749 M90.833,9.466h-1.848V4.864h1.96
		c0.272,0,0.53,0.121,0.69,0.325c0.289,0.366,0.634,0.97,0.634,1.767c0,0.829-0.368,1.594-0.678,2.091
		C91.429,9.309,91.145,9.466,90.833,9.466"/>
	<path clip-path="url(#SVGID_2_)" fill="#555655" d="M41.042,17.831c0.202,0,0.365-0.161,0.365-0.358s-0.163-0.358-0.365-0.358
		h-2.434c-0.201,0-0.364,0.161-0.364,0.358s0.163,0.358,0.364,0.358h0.852v4.9h-0.852c-0.201,0-0.364,0.161-0.364,0.358
		s0.163,0.358,0.364,0.358h2.434c0.202,0,0.365-0.161,0.365-0.358s-0.163-0.358-0.365-0.358H40.19v-4.9H41.042z"/>
	<path clip-path="url(#SVGID_2_)" fill="#555655" d="M47.005,16.995c-0.201,0-0.365,0.161-0.365,0.358v4.42l-2.914-4.609
		c-0.087-0.137-0.253-0.199-0.411-0.155c-0.156,0.044-0.265,0.186-0.265,0.345v5.677c0,0.197,0.164,0.358,0.366,0.358
		c0.201,0,0.364-0.161,0.364-0.358v-4.42l2.915,4.608c0.067,0.105,0.184,0.17,0.311,0.17c0.033,0,0.066-0.005,0.101-0.014
		c0.155-0.044,0.265-0.186,0.265-0.345v-5.677C47.37,17.156,47.206,16.995,47.005,16.995"/>
	<path clip-path="url(#SVGID_2_)" fill="#555655" d="M53.393,16.995c-0.2,0-0.364,0.161-0.364,0.358v4.42l-2.914-4.609
		c-0.086-0.135-0.255-0.198-0.411-0.155c-0.156,0.044-0.266,0.186-0.266,0.345v5.677c0,0.197,0.164,0.358,0.366,0.358
		c0.201,0,0.364-0.161,0.364-0.358v-4.42l2.915,4.608c0.066,0.105,0.183,0.17,0.31,0.17c0.033,0,0.067-0.005,0.102-0.014
		c0.154-0.044,0.264-0.186,0.264-0.345v-5.677C53.758,17.156,53.595,16.995,53.393,16.995"/>
	<path clip-path="url(#SVGID_2_)" fill="#555655" d="M59.721,16.995h-3.833c-0.201,0-0.365,0.161-0.365,0.358v5.915
		c0,0.198,0.164,0.359,0.365,0.359h3.589c0.202,0,0.366-0.161,0.366-0.359c0-0.197-0.164-0.358-0.366-0.358h-3.224v-2.211h3.164
		c0.2,0,0.364-0.161,0.364-0.357c0-0.198-0.164-0.359-0.364-0.359h-3.164v-2.271h3.468c0.201,0,0.365-0.161,0.365-0.358
		S59.922,16.995,59.721,16.995"/>
</g>
</svg>
