<?xml version="1.0" encoding="utf-8"?>
<!-- Generator: Adobe Illustrator 16.0.0, SVG Export Plug-In . SVG Version: 6.00 Build 0)  -->
<!DOCTYPE svg PUBLIC "-//W3C//DTD SVG 1.1//EN" "http://www.w3.org/Graphics/SVG/1.1/DTD/svg11.dtd">
<svg version="1.1" id="레이어_1" xmlns="http://www.w3.org/2000/svg" xmlns:xlink="http://www.w3.org/1999/xlink" x="0px"
	 y="0px" width="103.505px" height="78.688px" viewBox="0 0 103.505 78.688" enable-background="new 0 0 103.505 78.688"
	 xml:space="preserve">
<g>
	<g>
		<defs>
			<path id="SVGID_5_" d="M10.851,5.487c0,0-8.147,3.259-9.48,8.74c-1.333,5.481-2.815,14.962,1.481,21.184
				c4.296,6.222,9.777,13.777,14.518,16.74c4.741,2.963,16.592,9.036,19.999,12.443s6.814,8.147,8.74,10.37
				c0,0,1.185,3.407,4.444,3.703c3.259,0.297,5.481-2.814,7.555-5.629c2.074-2.814,5.63-7.11,8-8.444
				c2.37-1.333,26.961-31.109,27.405-31.85s0.593-1.481,1.778-4c1.185-2.518,5.333-9.777,5.333-9.777s-7.852-2.519-13.926-4.148
				c-6.073-1.63-14.073-3.407-19.109-5.777c-5.037-2.371-13.777-6.814-19.555-7.704c-5.777-0.889-12.443-2.074-17.48-0.741"/>
		</defs>
		<use xlink:href="#SVGID_5_"  overflow="visible" fill="#71C171"/>
		<clipPath id="SVGID_1_">
			<use xlink:href="#SVGID_5_"  overflow="visible"/>
		</clipPath>
		<path clip-path="url(#SVGID_1_)" fill="#63B263" d="M22.258,25.634c0,0-4.592,2.519-4,4.889
			c0.592,2.37,8.444,11.259,14.221,12.888c5.777,1.63,17.184,6.222,19.703,8.74c2.518,2.519,4.741,8.147,4.741,8.147l8.74-4.147
			L55.441,41.485"/>
		<path clip-path="url(#SVGID_1_)" fill="#58AC58" d="M40.627,71.113c0,0,9.925-15.999,21.628-16.592s9.629,3.556,9.629,3.556
			L69.959,72.15L55.886,82.964L42.85,82.372l-5.778-5.186"/>
		<path clip-path="url(#SVGID_1_)" fill="#509950" d="M65.515,61.04c0,0,0.148-2.963-3.407-0.444
			c-3.556,2.518-10.814,10.813-12.147,12.739c-1.333,1.926-3.555,5.186-0.593,5.926c2.963,0.741,13.185-2.222,13.185-2.222l5.629-8"
			/>
		<path clip-path="url(#SVGID_1_)" fill="#58AC58" d="M35.887,2.673c0,0,3.259-1.037,11.11,1.926
			c7.852,2.963,15.406,7.555,21.925,10.37c6.519,2.815,14.073,8,20.147,9.629c6.073,1.63,11.11,6.963,11.11,6.963L71.44,40.893
			l-9.629-2.814"/>
	</g>
	<path fill="none" d="M10.331,5.498"/>
	<path fill="#509950" d="M68.478,74.224c0,0,4,1.037,7.852-2.222s10.962-10.37,13.036-12.74s3.11-1.777,5.926-5.036
		c2.814-3.26,5.629-5.926,6.518-10.074c0.889-4.147,3.556-7.851-0.444-8.74c-4-0.889-23.702,10.518-23.702,10.518l-8.147,14.518"/>
	<g>
		<defs>
			<path id="SVGID_7_" d="M15.443,7.265c0,0-1.185,8.888,2.519,15.555c3.704,6.666,8.592,12.147,14.073,13.925
				c5.481,1.778,19.703,8.741,22.518,12.148c2.814,3.407,3.11,7.11,6.37,8.888c3.259,1.778,4.296,2.074,4.147,4.741
				c-0.148,2.666-1.037,5.185-1.037,5.185l4.444,6.518c0,0,1.037-3.259,5.185-5.925c4.148-2.667,8.74-6.074,12.444-10.666
				c3.703-4.593,5.333-4.297,9.036-8.148s5.481-8.592,6.666-12.147c1.186-3.556,0.889-4.148,0.889-4.148l0.297,0.592
				c0,0-11.999-4.296-17.333-7.703c-5.332-3.407-14.813-6.666-19.702-8.74C61.07,15.265,45.96,5.043,41.96,3.265
				c-4-1.777-6.518-1.926-7.851-1.629C32.776,1.932,15.443,7.265,15.443,7.265z"/>
		</defs>
		<use xlink:href="#SVGID_7_"  overflow="visible" fill="#F9F1E6"/>
		<clipPath id="SVGID_2_">
			<use xlink:href="#SVGID_7_"  overflow="visible"/>
		</clipPath>
		<path clip-path="url(#SVGID_2_)" fill="#F1EADD" d="M24.036,31.56c0,0,3.111-0.741,12.592,2.814s14.221,6.667,21.924,11.555
			S74.995,60.892,78.106,61.78s5.777,10.666,5.777,10.666l-23.109,9.481l-14.962,1.185"/>
	</g>
	<path fill="#509950" d="M10.276,5.768c0,0,2.649,3.423,11.833,1.645c9.185-1.777,14.073-5.481,13.481-6.518
		c-0.593-1.037-7.111-1.037-13.037,0.296C16.629,2.524,10.348,4.89,10.276,5.768z"/>
	<path fill="#71C171" d="M48.034,77.187"/>
</g>
</svg>
