<?xml version="1.0" encoding="utf-8"?>
<!-- Generator: Adobe Illustrator 16.0.0, SVG Export Plug-In . SVG Version: 6.00 Build 0)  -->
<!DOCTYPE svg PUBLIC "-//W3C//DTD SVG 1.1//EN" "http://www.w3.org/Graphics/SVG/1.1/DTD/svg11.dtd">
<svg version="1.1" id="Layer_2" xmlns="http://www.w3.org/2000/svg" xmlns:xlink="http://www.w3.org/1999/xlink" x="0px" y="0px"
	 width="717.367px" height="134px" viewBox="0 0 717.367 134" enable-background="new 0 0 717.367 134" xml:space="preserve">
<path fill="#38B0F4" d="M-13.821,122V0l13.792,9.999C8.2,15.965,19.331,15.965,27.56,10V9.999c8.229-5.965,19.359-5.965,27.588,0
	L55.15,10c8.228,5.966,19.359,5.966,27.588,0c8.228-5.966,19.358-5.966,27.587-0.001l0.003,0.003c8.228,5.964,19.358,5.965,27.586,0
	l0.007-0.004c8.228-5.965,19.358-5.964,27.586,0l0.004,0.003c8.228,5.965,19.358,5.965,27.586,0l0.003-0.002
	c8.228-5.965,19.359-5.965,27.587,0l0.003,0.002c8.228,5.965,19.358,5.965,27.587,0l0.004-0.003c8.228-5.964,19.357-5.964,27.586,0
	l0.006,0.005c8.228,5.964,19.357,5.964,27.585,0l0.009-0.006c8.228-5.964,19.357-5.964,27.585,0l0.007,0.006
	c8.228,5.964,19.357,5.964,27.585,0l0.008-0.006c8.229-5.964,19.357-5.964,27.585,0l0.008,0.006c8.228,5.964,19.356,5.964,27.585,0
	l0.008-0.006c8.228-5.964,19.356-5.964,27.585,0l0.009,0.006c8.227,5.964,19.356,5.964,27.584,0.001l0.009-0.007
	c8.229-5.964,19.358-5.963,27.586,0.001l0.004,0.003c8.229,5.965,19.358,5.965,27.587,0.001l0.006-0.004
	c8.228-5.965,19.356-5.965,27.585-0.001l0.009,0.006c8.227,5.964,19.355,5.964,27.584,0.001l0.012-0.009
	c8.228-5.963,19.355-5.963,27.583,0l0.013,0.01c8.229,5.963,19.355,5.963,27.584,0l0.013-0.01c8.228-5.963,19.354-5.963,27.583,0
	l0.016,0.011c8.227,5.963,19.354,5.963,27.58,0.001l0.021-0.015c8.227-5.961,19.353-5.961,27.578,0L731.179,20v114h-744.5
	C-13.321,134-13.821,119.483-13.821,122"/>
</svg>
